<?xml version="1.0" standalone="no"?>
<!DOCTYPE svg PUBLIC "-//W3C//DTD SVG 20010904//EN"
 "http://www.w3.org/TR/2001/REC-SVG-20010904/DTD/svg10.dtd">
<svg version="1.0" xmlns="http://www.w3.org/2000/svg"
 width="200.000000pt" height="200.000000pt" viewBox="0 0 200.000000 200.000000"
 preserveAspectRatio="xMidYMid meet">
<metadata>
Created by potrace 1.11, written by Peter Selinger 2001-2013
</metadata>
<g transform="translate(0.000000,200.000000) scale(0.100000,-0.100000)"
fill="#000000" stroke="none">
<path d="M254 1370 c-17 -5 -39 -19 -49 -30 -21 -23 -37 -26 -29 -6 8 20 -30
38 -69 34 l-32 -3 -3 -368 -2 -368 52 3 53 3 0 113 c0 61 1 112 3 112 2 0 15
-9 31 -21 87 -64 234 -10 287 106 67 146 24 349 -85 405 -49 24 -114 33 -157
20z m124 -125 c52 -58 57 -221 10 -292 -32 -46 -85 -61 -136 -36 -54 26 -72
70 -72 171 0 129 41 192 126 192 35 0 47 -6 72 -35z"/>
<path d="M1332 1365 c-18 -8 -35 -21 -38 -30 -3 -8 -10 -15 -16 -15 -5 0 -6 5
-3 10 11 17 -15 40 -44 40 -52 0 -52 3 -49 -281 l3 -264 50 0 50 0 5 192 c5
175 7 194 26 220 16 21 29 28 55 27 19 0 42 -4 51 -8 13 -6 20 0 32 29 22 52
20 64 -11 76 -48 18 -77 19 -111 4z"/>
<path d="M1649 1365 c-60 -19 -133 -96 -149 -156 -17 -61 -9 -225 13 -265 62
-117 197 -165 312 -110 57 27 94 63 125 123 17 34 22 61 22 130 1 98 -20 164
-70 216 -60 64 -166 90 -253 62z m155 -106 c45 -35 60 -76 59 -164 0 -122 -42
-185 -125 -188 -97 -4 -139 53 -139 187 0 132 38 185 132 186 32 0 54 -6 73
-21z"/>
<path d="M630 1356 c-8 -11 -11 -70 -8 -213 3 -177 5 -202 24 -237 30 -58 65
-80 137 -86 66 -6 118 11 148 46 13 16 14 15 19 -12 5 -27 8 -29 55 -29 l50 0
3 267 2 268 -24 6 c-13 3 -37 4 -52 2 l-29 -3 -5 -185 c-3 -120 -9 -193 -17
-207 -37 -64 -123 -84 -168 -38 -25 24 -25 26 -25 214 0 159 -3 192 -16 205
-19 20 -78 21 -94 2z"/>
<path d="M280 710 l0 -80 80 0 80 0 0 80 0 80 -80 0 -80 0 0 -80z"/>
<path d="M841 780 l-174 -5 0 -70 0 -70 276 -3 277 -2 0 81 0 81 -102 -4 c-57
-2 -181 -5 -277 -8z"/>
<path d="M1446 783 c-3 -4 -6 -39 -6 -80 l0 -73 53 -1 c28 0 135 -3 237 -5
102 -3 195 -2 208 1 21 5 22 11 22 85 l0 80 -254 0 c-139 -1 -256 -4 -260 -7z"/>
</g>
</svg>
